<?xml version="1.0" encoding="utf-8"?>
<!-- Generator: Adobe Illustrator 24.1.0, SVG Export Plug-In . SVG Version: 6.00 Build 0)  -->
<svg version="1.1" id="Layer_1" xmlns="http://www.w3.org/2000/svg" xmlns:xlink="http://www.w3.org/1999/xlink" x="0px" y="0px"
	 viewBox="0 120 432 230" style="enable-background:new 0 0 432 432;" xml:space="preserve">
<g>
	<g>
		<path d="M184.06,175.77l-105.89,1.33l105.95,1.33c-0.07-0.51-0.11-1.03-0.11-1.55C184.01,176.51,184.03,176.14,184.06,175.77z"/>
	</g>
	<g>
		<path d="M248.7,178.42l104.74-1.32l-104.69-1.32c0.03,0.36,0.05,0.73,0.05,1.09C248.81,177.4,248.76,177.91,248.7,178.42z"/>
	</g>
</g>
<g>
	<path d="M219.31,181.1c-1.42,0.32-1.58,0.48-1.58,1.44v6.52c-4.61,1.8-7.53,2.4-11.41,2.4c-9.1,0-15.02-5.72-15.02-14.56
		c0-8.6,6.07-13.92,15.9-13.92c3.8,0,6.49,0.52,10.02,1.88l0.23,0.44c-0.35,1.52-0.46,2.28-0.88,6.12h-1.5l-0.19-3.44
		c-0.96-0.96-1.34-1.24-2.38-1.68c-1.61-0.68-3.61-1.08-5.49-1.08c-6.26,0-9.95,4.16-9.95,11.24c0,7.64,4.15,12.76,10.33,12.76
		c1.65,0,2.92-0.24,4.88-1v-5.28c0-1.04-0.58-1.4-2.19-1.48l-2.04-0.08v-1.64c3.26,0.08,4.42,0.12,5.53,0.12
		c1.08,0,2.34-0.04,5.72-0.12V181.1z"/>
	<path d="M223.49,182.7l0.27,3.52c1.23,1.88,3.69,3.08,6.3,3.08c3.3,0,5.76-2.2,5.76-5.16c0-1.92-1.04-3.16-3.19-3.84l-5.38-1.68
		c-3.65-1.12-5.61-3.64-5.61-7.04c0-5.4,3.76-8.6,10.18-8.6c2.54,0,4.53,0.36,7.11,1.36l0.19,0.48c-0.35,1.16-0.54,3.08-0.54,5.68
		h-1.57l-0.23-3.28c-1.46-1.48-3.19-2.2-5.22-2.2c-3.07,0-5.15,1.88-5.15,4.68c0,2.04,1.23,3.24,4.07,4.04l4.38,1.2
		c3.8,1.04,5.8,3.44,5.8,7.04c0,5.8-4.42,9.48-11.29,9.48c-2.92,0-5.15-0.52-7.99-1.84c0.42-2.28,0.58-3.92,0.58-6.92H223.49z"/>
</g>
<g>
	<path d="M115.59,223.7c-1.7,3.41-1.88,3.88-2.75,5.96c-0.51,0.08-1.03,0.16-1.54,0.24c-0.85-1.79-1.3-2.73-1.62-3.33
		c-3.45-6.41-6.91-13.19-10.39-20.37c-0.01,6.37-0.02,12.73-0.03,19.1c-0.01,4.08,0.13,4.28,2.17,4.13
		c0.56-0.05,1.12-0.09,1.68-0.14c0,0.55,0,1.11,0,1.66c-2.94,0.41-4.07,0.57-5.11,0.76c-1.04,0.19-2.26,0.45-5.25,1.1
		c0-0.59,0-1.17,0-1.76c0.56-0.15,1.12-0.29,1.67-0.44c2.04-0.54,2.17-0.84,2.18-4.93c0.01-6.32,0.01-12.65,0.02-18.97
		c0-4.09-0.13-4.37-2.18-4.52c-0.56-0.04-1.12-0.08-1.69-0.12c0-0.59,0-1.17,0-1.76c0.77,0.01,1.55,0.03,2.32,0.04
		c0.52,0.03,1.03,0.06,1.55,0.09c0.53,0,1.06,0,1.6-0.01c1.82-0.05,3.65-0.11,5.47-0.16c1.99,4.23,2.81,5.93,3.39,7.06
		c2.38,4.73,4.76,9.28,7.13,13.67c2.8-5.63,5.6-11.03,8.41-16.2c0.51-0.94,0.92-1.81,2.26-4.59c3.19,0.07,4.56,0.11,5.24,0.1
		c0.68,0,2.05-0.05,5.29-0.13c0,0.47-0.01,0.94-0.01,1.41c-0.56,0.04-1.13,0.09-1.69,0.13c-2.05,0.17-2.19,0.41-2.22,3.83
		c-0.04,5.28-0.08,10.56-0.11,15.84c-0.02,3.46,0.02,3.53,2.16,3.43c0.56-0.03,1.12-0.05,1.68-0.08c0,0.51-0.01,1.02-0.01,1.53
		c-3.87,0.4-5.46,0.57-7.1,0.78c-1.59,0.21-3.23,0.46-7.05,1.09c0-0.54,0.01-1.09,0.01-1.63c0.56-0.12,1.12-0.23,1.68-0.35
		c2.14-0.44,2.18-0.52,2.21-4.09c0.04-5.55,0.07-11.1,0.11-16.66C121.9,211.23,118.74,217.32,115.59,223.7z"/>
	<path d="M147.88,219.88c-0.03,3.22,0.02,3.28,2.16,3.23c0.56-0.02,1.12-0.03,1.69-0.05c0,0.47-0.01,0.95-0.01,1.42
		c-3.88,0.3-5.47,0.44-7.11,0.61c-1.6,0.17-3.24,0.38-7.06,0.9c0-0.5,0.01-1.01,0.01-1.51c0.56-0.1,1.12-0.2,1.69-0.3
		c2.14-0.38,2.19-0.45,2.22-3.76c0.04-5.05,0.08-10.09,0.12-15.14c0.03-3.3-0.02-3.37-2.16-3.5c-0.56-0.03-1.12-0.06-1.69-0.1
		c0-0.5,0.01-1.01,0.01-1.51c3.83,0.07,5.47,0.1,7.07,0.09c1.64,0,3.24-0.05,7.11-0.12c0,0.47-0.01,0.95-0.01,1.42
		c-0.56,0.04-1.13,0.08-1.69,0.12c-2.14,0.16-2.19,0.23-2.22,3.45C147.96,210.06,147.92,214.97,147.88,219.88z"/>
	<path d="M164.7,221.3c2.42-0.1,4.2-0.18,6.99-0.35c1.97-0.12,4.34-0.55,4.44-0.81c0.36-1.14,0.72-2.27,1.07-3.4
		c0.59-0.03,1.19-0.05,1.78-0.07c-0.18,1.81-0.36,3.63-0.54,5.44c-0.08,0.09-0.15,0.18-0.23,0.27c-2.61,0.25-3.93,0.36-6.4,0.52
		c-2.15,0.14-4.53,0.27-7.4,0.42c-1.6,0.09-2.1,0.13-2.92,0.2c-1.19,0.1-2.42,0.23-5.62,0.58c0-0.27,0-0.54,0.01-0.81
		c0.49-0.25,0.98-0.5,1.47-0.75c0.69-0.33,0.92-0.87,0.93-2.05c0.04-5.19,0.08-10.37,0.13-15.56c0.02-3.09-0.02-3.16-2.16-3.28
		c-0.56-0.03-1.12-0.06-1.69-0.09c0-0.47,0.01-0.94,0.01-1.41c3.83,0.06,5.47,0.09,7.07,0.09c1.64,0,3.24-0.04,7.11-0.11
		c0,0.45-0.01,0.9-0.01,1.34c-0.56,0.04-1.13,0.07-1.69,0.11c-2.14,0.15-2.19,0.22-2.21,3.24
		C164.79,210.31,164.75,215.81,164.7,221.3z"/>
	<path d="M189.9,219.98c2.42-0.02,4.21-0.04,7-0.12c1.97-0.05,4.35-0.38,4.44-0.63c0.35-1.07,0.71-2.15,1.06-3.22
		c0.59-0.01,1.19-0.02,1.78-0.02c-0.17,1.74-0.34,3.47-0.52,5.21c-0.08,0.08-0.15,0.17-0.23,0.25c-2.61,0.14-3.94,0.21-6.41,0.27
		c-2.15,0.06-4.53,0.1-7.41,0.15c-1.6,0.03-2.1,0.05-2.93,0.09c-1.19,0.05-2.43,0.14-5.63,0.36c0-0.25,0-0.5,0-0.75
		c0.49-0.22,0.98-0.44,1.47-0.65c0.69-0.29,0.92-0.79,0.93-1.88c0.03-4.82,0.06-9.65,0.08-14.47c0.02-2.88-0.03-2.94-2.17-3.06
		c-0.56-0.03-1.12-0.06-1.69-0.09c0-0.43,0.01-0.87,0.01-1.3c3.83,0.06,5.47,0.09,7.07,0.09c1.64,0,3.24-0.04,7.11-0.1
		c0,0.42,0,0.85-0.01,1.27c-0.56,0.03-1.13,0.07-1.69,0.1c-2.14,0.13-2.19,0.2-2.2,3.04C189.95,209.66,189.92,214.82,189.9,219.98z"
		/>
	<path d="M219.23,203.81c0.46-0.69,0.91-1.44,1.32-2.22c0.32-0.53,0.68-1.09,1-1.66c0.68,0,1.37,0,2.05,0
		c0.96,1.88,1.51,2.94,2.24,4.17c2.09,3.59,4.19,7.19,6.29,10.83c1.47-3.94,2.93-7.9,4.39-11.89c0.14-0.32,0.18-0.66,0.18-0.95
		c0-0.44-0.55-0.67-1.6-0.73c-0.7-0.03-1.4-0.07-2.1-0.1c0-0.39,0-0.78,0-1.17c0.81,0.02,1.61,0.04,2.42,0.06
		c1.14,0.03,1.96,0.03,2.37,0.03c0.73,0,2.19-0.03,5.06-0.09c0,0.39,0,0.79,0.01,1.18c-0.5,0.03-1,0.06-1.5,0.09
		c-0.78,0.06-1.36,0.73-1.95,2.19c-1.83,4.57-3.67,9.1-5.52,13.61c-0.32,0.81-0.59,1.6-1.49,4.47c-1.11-0.03-2.23-0.05-3.34-0.08
		c-0.37-0.67-0.41-0.73-0.78-1.52c-0.37-0.73-0.64-1.2-0.97-1.8c-2.28-3.95-4.56-7.88-6.83-11.79c-2.36,3.69-4.72,7.38-7.08,11.07
		c-0.41,0.69-0.78,1.31-2.15,3.91c-1.07,0.01-2.14,0.02-3.21,0.03c-2.11-6.25-4.22-12.51-6.31-18.81c-0.32-0.88-0.82-1.26-1.68-1.32
		c-0.49-0.03-0.97-0.06-1.46-0.09c0-0.39,0-0.78,0-1.17c4.42,0.06,6.29,0.09,7.11,0.09c0.91,0,2.46-0.03,6.11-0.1
		c0,0.39,0,0.77,0,1.16c-0.64,0.03-1.28,0.06-1.92,0.09c-0.73,0.03-1.37,0.41-1.37,0.78c0,0.25,0.04,0.53,0.14,0.81
		c1.24,3.99,2.49,7.97,3.73,11.95C214.67,211.19,216.95,207.5,219.23,203.81z"/>
	<path d="M273.95,211.83c0.07,8.04-6.33,12.1-17.26,11.34c-10.48-0.68-16.49-4.89-16.52-11.95c-0.03-7.3,6.38-11.53,17.45-11.57
		C267.88,199.6,273.89,204.1,273.95,211.83z M250.17,203.33c-2.09,1.45-3.17,3.98-3.15,7.3c0.02,3.74,1.41,6.81,3.94,8.69
		c1.65,1.25,3.53,1.87,6.05,2.02c6.68,0.42,10.17-2.64,10.11-9.04c-0.03-3.92-1.47-7.17-3.99-9.04c-1.65-1.2-3.48-1.74-6.12-1.75
		C254.31,201.49,251.85,202.14,250.17,203.33z"/>
	<path d="M301.56,223.68c1.1,1.38,1.56,1.68,3.2,2.16c0,0.53,0.01,1.06,0.01,1.59c-1.68-0.3-2.09-0.36-4.41-0.7
		c-1.37-0.14-2.73-0.27-4.1-0.4c-3.43-4.84-6.87-9.44-10.31-13.85c0.1-0.21,0.21-0.43,0.31-0.64c2.05,0.1,3.14,0.02,4.28-0.48
		c1.91-0.79,2.99-2.45,2.97-4.45c-0.02-3.07-2.36-4.87-6.42-4.9c-1.19-0.01-2.05,0.09-2.69,0.3c0.05,5.9,0.1,11.8,0.14,17.7
		c0.03,3.24,0.07,3.31,2.22,3.67c0.56,0.09,1.13,0.19,1.69,0.28c0,0.49,0.01,0.99,0.01,1.48c-3.88-0.5-5.47-0.69-7.12-0.85
		c-1.6-0.16-3.24-0.28-7.07-0.56c0-0.47-0.01-0.93-0.01-1.4c0.56,0.01,1.13,0.02,1.69,0.04c2.14,0.04,2.19-0.02,2.16-3.17
		c-0.04-4.82-0.08-9.64-0.12-14.46c-0.03-3.12-0.16-3.33-2.22-3.49c-0.56-0.04-1.13-0.08-1.69-0.12c0-0.43-0.01-0.86-0.01-1.29
		c4.6,0.08,6.61,0.12,8.12,0.12c1.32,0,4.47-0.03,5.93-0.06c1.5-0.03,2.6-0.03,3.15-0.03c5.75,0,8.68,1.91,8.7,5.74
		c0.01,1.64-0.62,3.05-1.88,4.19c-1.22,1.1-2.31,1.61-4.86,2.34C296.02,216.05,298.79,219.79,301.56,223.68z"/>
	<path d="M324.49,206.66c0.95-0.85,1.86-1.75,2.63-2.67c0.18-0.17,0.32-0.35,0.45-0.53c0.95-0.97,1.18-1.37,1.18-2.05
		c0-0.38,0-0.75,0-1.13c2.37,0.1,3.33,0.15,4.15,0.15c0.82,0,1.78-0.04,4.15-0.12c0,0.61,0,1.23,0,1.84
		c-2.87,0.19-3.92,0.51-5.01,1.49c-3.37,3.09-6.72,6.01-10.08,8.78c4.05,4.81,8.09,9.92,12.11,15.4c1.4,1.89,2.45,2.69,4.12,3.03
		c0,0.65,0,1.3,0,1.95c-4.07-0.9-4.07-0.88-4.57-0.98c-1.54-0.23-3.08-0.45-4.62-0.67c-3.15-4.29-6.31-8.36-9.47-12.24
		c-2.6-3.12-2.79-3.27-3.97-4.01c0.01,2.76,0.03,5.52,0.04,8.28c0.02,3.74,0.07,3.83,2.2,4.31c0.56,0.12,1.12,0.25,1.68,0.38
		c0,0.57,0,1.14,0.01,1.72c-3.86-0.69-5.45-0.96-7.08-1.2c-1.59-0.23-3.22-0.43-7.04-0.87c0-0.53-0.01-1.06-0.01-1.6
		c0.56,0.03,1.12,0.06,1.68,0.1c2.14,0.12,2.18,0.04,2.16-3.58c-0.03-5.53-0.07-11.07-0.1-16.6c-0.02-3.62-0.07-3.7-2.21-3.89
		c-0.56-0.05-1.12-0.09-1.69-0.14c0-0.53-0.01-1.06-0.01-1.6c3.83,0.09,5.47,0.14,7.07,0.14c1.64,0.01,3.24-0.03,7.11-0.1
		c0,0.57,0,1.14,0.01,1.72c-0.56,0.04-1.12,0.07-1.69,0.11c-2.14,0.14-2.19,0.22-2.17,3.96c0.01,2.8,0.03,5.6,0.04,8.41
		C318.54,211.97,321.51,209.38,324.49,206.66z"/>
</g>
<g>
	<path d="M249.78,245.78c-0.39,0-0.17-0.36-0.44-0.39c-0.28-0.02-0.11-0.49-0.23-0.62c-0.2-0.17,0.19-0.15,0.11-0.3
		c0-0.22-0.39-0.34-0.22-0.54c0.09-0.08,0.07-0.28,0.26-0.23c0.13-0.02,0.04-0.27,0.26-0.29c0.27-0.13-0.19-0.16-0.26-0.46
		c0.15-0.38,0.3-0.93,0.52-1.23c0.32-0.44-0.3-0.22-0.1-0.59c0.09-0.09,0.09-0.13-0.02-0.2c-0.15-0.16,0.21-0.36,0.17-0.54
		c-0.24-0.74,0.33-0.45,0.23-0.72c-0.1-0.14-0.08-0.41,0.04-0.51c0.17-0.03,0-0.34,0.25-0.22c0.4,0.15-0.01-0.29,0.14-0.37
		c0.21-0.51,0.51-0.22,0.4-0.86c0.22-0.37,0.6-0.51,0.9-0.69c0.1-0.21,0.18,0.37,0.14,0.52c0.03,0.4,0.15,0.1,0.33,0.14
		c0.18,0.05,0.64,1.11,0.67,1.16s-0.26,0.35-0.23,0.45c0.03,0.1,0.41,0.6,0.51,0.92c0.12,0.33-0.07,0.7,0.06,0.84
		c0.13,0.13,0.1,0.2-0.02,0.33c-0.17,0.19,0.23,0.33,0.09,0.52c-0.1,0.13,0.33,0.24,0.1,0.37c-0.2,0.08,0.07,0.24-0.08,0.28
		c-0.13,0.03,0.11,0.26,0.21,0.38c0.08-0.21,0.17-0.41,0.27-0.55c0.29-0.39-0.27-0.2-0.09-0.53c0.08-0.08,0.08-0.11-0.02-0.18
		c-0.13-0.15,0.19-0.32,0.15-0.48c-0.21-0.66,0.3-0.41,0.2-0.64c-0.09-0.13-0.08-0.36,0.03-0.46c0.15-0.03,0-0.3,0.22-0.2
		c0.36,0.13-0.01-0.26,0.12-0.34c0.19-0.46,0.46-0.2,0.35-0.77c0.2-0.34,0.54-0.46,0.8-0.62c0.09-0.18,0.16,0.33,0.13,0.46
		c0.02,0.36,0.13,0.09,0.29,0.13c0.16,0.04,0.57,0.99,0.6,1.04c0.03,0.04-0.23,0.32-0.2,0.41c0.03,0.09,0.36,0.54,0.46,0.83
		c0.11,0.3-0.06,0.63,0.05,0.75c0.12,0.12,0.09,0.18-0.02,0.3c-0.16,0.17,0.21,0.3,0.08,0.46c-0.09,0.12,0.29,0.22,0.09,0.33
		c-0.18,0.07,0.06,0.22-0.07,0.25c-0.13,0.03,0.19,0.31,0.23,0.39c0,0,0,0,0,0c0.03-0.05,0.05-0.1,0.08-0.13
		c0.24-0.32-0.22-0.16-0.07-0.44c0.07-0.07,0.07-0.09-0.02-0.15c-0.11-0.12,0.16-0.27,0.12-0.4c-0.18-0.55,0.25-0.34,0.17-0.53
		c-0.07-0.1-0.06-0.3,0.03-0.38c0.12-0.02,0-0.25,0.18-0.16c0.3,0.11-0.01-0.21,0.1-0.28c0.15-0.38,0.38-0.16,0.29-0.63
		c0.16-0.28,0.44-0.38,0.66-0.51c0.07-0.15,0.13,0.28,0.1,0.38c0.02,0.29,0.11,0.07,0.24,0.11s0.47,0.82,0.49,0.86
		s-0.19,0.26-0.17,0.34c0.02,0.08,0.3,0.45,0.38,0.68c0.09,0.25-0.05,0.52,0.04,0.62c0.1,0.1,0.07,0.15-0.02,0.25
		c-0.13,0.14,0.17,0.25,0.07,0.38c-0.07,0.1,0.24,0.18,0.07,0.27c-0.15,0.06,0.05,0.18-0.06,0.21c-0.11,0.03,0.15,0.25,0.19,0.32
		c0.07,0.03,0.08,0.06,0.02,0.1c-0.15,0.07,0.05,0.13-0.02,0.21c-0.08,0.25,0.34,0.54-0.03,0.69c0.32,0.26,0.02,0.15,0.05,0.33
		c0.01,0.23-0.34,0.06-0.23,0.37c0.04,0.16-0.23,0.04-0.21,0.16c0.07,0.17-0.07,0.24-0.09,0.37c-0.03,0.13-0.65,0.15-0.8,0.21
		c-0.01,0.28-0.16,0.82,0.2,0.96c0.02,0.02,0.08,0.03,0.14,0.04l94.29-1.19l-70.63-0.89c-0.1-0.11-0.22-0.2-0.37-0.25
		c-26.54-8.55-31.91-10.42-34.45-10.81c-4.46-0.69-7.95,2.43-9.38,1.3c-2.79-2.2-7.69-5.43-12.42-5.35
		c-3.08,0.06-10.23,5.66-10.86,5.15c-1.8-1.45-5.32-3.99-7.18-3.97c-3.95,0.04-11.14,3.59-13.73,4.91
		c-0.45,0.23-1.11-1.02-2.68-1.05c-2.97-0.07-22.1,6.66-32.07,9.82c-0.09,0.03-0.16,0.07-0.24,0.12l-81.26,1.02l137.64,1.73
		l34.28-0.43C251.87,247.42,250.96,245.78,249.78,245.78z M188.98,245.17l-16.8,0.21h-6.31c7.53-2.39,24.86-7.88,24.94-7.89
		C190.74,237.67,188.62,241.63,188.98,245.17z M203.68,240.25l-0.3,0.14c-0.63-0.15-1.22-0.3-1.76-0.45
		c-1.36-0.38-4.25-1.31-6.02-1.89c3.57-2.49,8.13-4.23,8.8-3.95c0.68,0.28,2.16,4.85,2.16,4.85
		C205.67,239.33,204.68,239.79,203.68,240.25z M240.01,245.14l-22.21-0.28c-3.41-1-9.21-3.02-9.21-3.02s4.69-2.91,5.65-3.13
		c0.96-0.22,2.41,0.15,3.47-0.76s5.92-5.78,6.99-5.67c1.07,0.12,0.67,10.44,0.67,10.44c0.01,0.19,0.16,0.35,0.34,0.37
		c0.43,0.06,10.69,1.46,13.22,0.84c2.7-0.66,3.37-4.04,3.64-5.04c0.27-1,1.45-3.24,3.76-2.16
		C247.72,237.39,242.63,243.84,240.01,245.14z"/>
	<path d="M257.32,246.39c-0.29,0-0.13-0.26-0.33-0.29c-0.18-0.02-0.11-0.28-0.15-0.41c-0.07,0-0.14,0.01-0.12,0.07
		c0.09,0.2-0.08,0.29-0.11,0.45s-0.78,0.18-0.97,0.25c-0.01,0.34-0.2,1,0.24,1.16c0.1,0.08,0.72,0.1,0.99,0.16l1.07-0.01
		C258.67,247.31,258.08,246.39,257.32,246.39z"/>
	<path d="M253.82,246.02c-0.35,0-0.15-0.32-0.4-0.35c-0.14-0.01-0.15-0.15-0.16-0.29c-0.08,0.06-0.28,0-0.25,0.12
		c0.1,0.22-0.09,0.32-0.13,0.5c-0.04,0.18-0.88,0.21-1.09,0.28c-0.01,0.38-0.22,1.11,0.27,1.29c0.15,0.12,1.32,0.11,1.24,0.26
		l1.04-0.01C255.59,247.33,254.81,246.02,253.82,246.02z"/>
</g>
<g>
	<path d="M160.32,155.72l0.03-0.22l0.11-0.06c0.38-0.18,0.38-0.18,0.5-0.27c0.81-0.6,0.83-1.65,0.06-2.68
		c-0.85-1.14-1.82-1.32-2.88-0.53c-0.35,0.26-0.56,0.48-0.69,0.69l4.64,6.26c0.84,1.13,0.9,1.16,1.52,0.76l0.63-0.41l0.38,0.51
		c-1.23,0.87-1.71,1.21-2.16,1.54c-0.45,0.33-0.89,0.68-1.96,1.52l-0.38-0.51l0.45-0.39c0.57-0.5,0.56-0.54-0.29-1.68L156.4,155
		c-0.84-1.13-0.94-1.18-1.55-0.8l-0.5,0.31l-0.35-0.48c1.32-0.94,1.89-1.34,2.26-1.62c0.36-0.27,0.94-0.72,1.79-1.37
		c0.32-0.26,0.49-0.38,0.62-0.48c1.66-1.23,2.92-1.19,3.88,0.11c1.15,1.55,0.79,3.64-0.88,4.88c-0.18,0.13-0.28,0.19-0.58,0.35
		c-0.07,0.04-0.12,0.05-0.22,0.1L160.32,155.72z"/>
	<path d="M182.32,148.38c0.56,0.3,0.75,0.33,1.32,0.19l0.27,0.58c-0.55,0.22-0.68,0.28-1.43,0.6l-1.29,0.65l-5.58-3.55l-0.02-0.31
		c0.65-0.3,0.98-0.52,1.24-0.9c0.45-0.63,0.5-1.44,0.14-2.21c-0.54-1.18-1.6-1.52-2.89-0.93c-0.38,0.17-0.63,0.34-0.8,0.52
		l3.25,7.08c0.59,1.29,0.62,1.32,1.33,1.06l0.56-0.2l0.27,0.58c-1.25,0.54-1.77,0.76-2.29,1c-0.51,0.23-1.03,0.49-2.23,1.08
		l-0.27-0.58l0.52-0.29c0.66-0.37,0.66-0.41,0.06-1.7l-2.73-5.93c-0.59-1.28-0.67-1.35-1.35-1.1l-0.56,0.2l-0.25-0.54
		c1.48-0.65,2.13-0.93,2.61-1.15c0.42-0.19,1.42-0.67,1.88-0.9c0.47-0.24,0.82-0.4,1-0.48c1.83-0.84,3.09-0.56,3.75,0.87
		c0.28,0.61,0.32,1.24,0.12,1.88c-0.19,0.62-0.44,1-1.1,1.7L182.32,148.38z"/>
	<path d="M193.23,140.02c0.32-0.04,0.54-0.09,1.05-0.22l1.03-0.24c0.65-0.16,0.84-0.28,0.81-0.54l-0.12-0.91l0.62-0.15
		c0.3,1.47,0.31,1.5,0.35,1.68l0.45,1.67l-0.62,0.15l-0.28-0.76c-0.14-0.39-0.43-0.51-1.02-0.37l-1.03,0.24
		c-0.34,0.08-0.6,0.16-1.03,0.29l0.99,4.16c0.83-0.17,1.43-0.29,2.33-0.5c0.72-0.17,1.51-0.51,1.51-0.64l0.01-1.55l0.61-0.14
		l0.41,2.5l-0.05,0.14c-0.88,0.26-1.32,0.38-2.16,0.58c-0.73,0.17-1.54,0.35-2.53,0.55c-0.55,0.11-0.72,0.15-1,0.22
		c-0.4,0.1-0.82,0.21-1.9,0.5l-0.08-0.36l0.43-0.4c0.2-0.18,0.23-0.43,0.1-0.96l-1.65-6.97c-0.32-1.37-0.39-1.45-1.11-1.35
		l-0.59,0.09l-0.14-0.58c1.55-0.33,2.31-0.5,2.97-0.66c0.53-0.12,0.87-0.21,1.98-0.5c0.77-0.2,1.26-0.32,1.68-0.42
		c0.59-0.14,0.91-0.2,1.49-0.3l0.12,0.09l0.31,2.26l-0.56,0.13l-0.4-1.14c-0.06-0.17-0.74-0.14-1.6,0.07s-1.51,0.37-2.25,0.58
		L193.23,140.02z"/>
	<path d="M215.19,141.39c-0.57,1.23-0.63,1.39-0.92,2.13l-0.54,0.01c-0.32-0.71-0.48-1.08-0.6-1.32l-3.82-7.59l0.13,6.67
		c0.03,1.42,0.08,1.5,0.8,1.55l0.59,0.04l0.01,0.59c-1.04-0.01-1.44-0.02-1.81-0.01s-0.8,0.03-1.85,0.08l-0.01-0.59l0.59-0.06
		c0.72-0.08,0.76-0.17,0.74-1.58l-0.12-6.52c-0.03-1.41-0.08-1.5-0.8-1.55l-0.59-0.04l-0.01-0.59h0.82l0.54,0.02l0.56-0.01
		l1.92-0.08c0.73,1.51,1.03,2.14,1.25,2.55l2.63,5.23l2.81-6.1c0.17-0.37,0.31-0.71,0.75-1.82c1.12,0.01,1.6,0.02,1.84,0.01
		c0.24,0,0.72-0.03,1.85-0.08l0.01,0.59l-0.59,0.06c-0.72,0.08-0.76,0.17-0.74,1.58l0.12,6.52c0.03,1.42,0.04,1.46,0.8,1.5
		l0.59,0.04l0.01,0.64c-1.36-0.01-1.92-0.01-2.5,0c-0.56,0.01-1.14,0.04-2.48,0.1l-0.01-0.64l0.59-0.06
		c0.75-0.08,0.77-0.11,0.74-1.53l-0.13-6.65L215.19,141.39z"/>
	<path d="M233.9,142.79c-0.25,1.4-0.24,1.44,0.49,1.63l0.57,0.15l-0.11,0.63c-1.33-0.27-1.88-0.38-2.45-0.48
		c-0.55-0.1-1.12-0.18-2.45-0.38l0.11-0.63l0.59,0.05c0.75,0.07,0.77,0.04,1.02-1.36l1.13-6.43c0.25-1.4,0.24-1.44-0.49-1.63
		l-0.58-0.15l0.11-0.63c1.32,0.26,1.88,0.38,2.43,0.48c0.57,0.1,1.12,0.18,2.47,0.39l-0.11,0.63l-0.59-0.06
		c-0.75-0.07-0.77-0.04-1.02,1.36L233.9,142.79z"/>
	<path d="M253.6,146.75c-1.01,2.71-2.87,3.51-5.75,2.44c-2.58-0.96-3.78-2.68-3.12-4.47l2.04-5.49c0.49-1.32,0.48-1.43-0.17-1.74
		l-0.54-0.25l0.21-0.55c1.25,0.5,1.78,0.71,2.31,0.91c0.54,0.2,1.07,0.38,2.36,0.82l-0.21,0.56l-0.57-0.16
		c-0.7-0.19-0.78-0.12-1.27,1.2l-1.38,3.72c-0.58,1.56-0.71,2.32-0.48,2.95c0.23,0.63,0.82,1.11,1.84,1.49
		c1,0.37,1.77,0.42,2.35,0.14c0.71-0.33,1.2-1.06,1.79-2.65l1.34-3.62c0.49-1.32,0.48-1.43-0.17-1.74l-0.54-0.25l0.21-0.55
		c1.32,0.54,1.53,0.62,1.71,0.69l1.73,0.59l-0.21,0.55l-0.57-0.16c-0.7-0.19-0.78-0.12-1.27,1.2L253.6,146.75z"/>
	<path d="M267.99,157.18c-1.18,0.67-1.32,0.76-1.99,1.2l-0.45-0.31c0.16-0.77,0.23-1.16,0.28-1.42l1.3-8.4l-3.77,5.5
		c-0.81,1.17-0.81,1.27-0.25,1.73l0.46,0.38l-0.33,0.49c-0.84-0.61-1.16-0.85-1.46-1.06s-0.67-0.44-1.56-1.01l0.33-0.49l0.51,0.29
		c0.63,0.35,0.72,0.3,1.52-0.86l3.69-5.38c0.8-1.16,0.81-1.27,0.25-1.73l-0.46-0.38l0.33-0.49l0.66,0.47l0.43,0.33l0.46,0.32
		l1.61,1.05c-0.28,1.65-0.4,2.34-0.47,2.8l-0.9,5.79l5.84-3.33c0.35-0.2,0.66-0.4,1.67-1.05c0.91,0.66,1.29,0.94,1.49,1.08
		c0.2,0.14,0.6,0.39,1.56,1.01l-0.33,0.49l-0.52-0.29c-0.63-0.35-0.72-0.3-1.52,0.86l-3.69,5.38c-0.8,1.17-0.81,1.21-0.23,1.69
		l0.46,0.37l-0.36,0.53c-1.1-0.8-1.56-1.13-2.03-1.45c-0.46-0.32-0.95-0.63-2.07-1.36l0.36-0.53l0.51,0.3
		c0.66,0.37,0.69,0.35,1.49-0.82l3.76-5.49L267.99,157.18z"/>
</g>
<g>
	<path d="M155.66,268.32c0.31-0.13,0.64-0.28,0.97-0.46c0.23-0.11,0.49-0.22,0.73-0.34l0.46,0.43c-0.35,0.82-0.55,1.28-0.76,1.83
		l-1.84,4.83l4.59-2.97c0.13-0.08,0.24-0.18,0.33-0.27c0.13-0.14,0.08-0.33-0.14-0.57l-0.45-0.47l0.35-0.38l0.53,0.52
		c0.25,0.25,0.43,0.42,0.53,0.5c0.16,0.15,0.5,0.45,1.17,1.02l-0.35,0.38l-0.37-0.28c-0.19-0.14-0.53-0.05-1.1,0.3l-5.36,3.29
		c-0.32,0.2-0.62,0.4-1.7,1.16l-0.75-0.69c0.12-0.29,0.13-0.32,0.28-0.66c0.14-0.31,0.22-0.52,0.32-0.79l2.02-5.28l-4.97,2.19
		c-0.3,0.14-0.57,0.27-1.67,0.84l-0.72-0.67l4.28-7.52c0.19-0.35,0.19-0.58,0.02-0.78l-0.3-0.33l0.35-0.38
		c0.98,0.94,1.39,1.34,1.58,1.51c0.21,0.19,0.57,0.5,1.41,1.24l-0.35,0.38l-0.46-0.37c-0.17-0.14-0.43-0.15-0.55-0.03
		c-0.08,0.08-0.15,0.18-0.22,0.3l-2.79,4.72L155.66,268.32z"/>
	<path d="M169.62,282.47c-1.74,2.68-4.42,3.18-7.23,1.36c-2.69-1.75-3.26-4.24-1.56-6.84c1.75-2.7,4.42-3.18,7.28-1.33
		C170.74,277.37,171.3,279.89,169.62,282.47z M165.32,275.73c-0.88,0.18-1.77,0.92-2.55,2.13c-0.88,1.36-1.25,2.69-1.02,3.75
		c0.15,0.7,0.51,1.2,1.15,1.62c1.71,1.11,3.36,0.55,4.79-1.64c0.88-1.35,1.23-2.69,1.01-3.75c-0.16-0.68-0.5-1.18-1.18-1.62
		C166.82,275.76,166.03,275.58,165.32,275.73z"/>
	<path d="M181.83,288.25c-1.32,2.91-3.9,3.82-6.95,2.43c-2.92-1.32-3.86-3.7-2.57-6.53c1.33-2.93,3.9-3.82,7-2.41
		C182.17,283.04,183.1,285.45,181.83,288.25z M176.56,282.24c-0.85,0.31-1.61,1.18-2.21,2.49c-0.67,1.48-0.83,2.85-0.44,3.86
		c0.25,0.67,0.68,1.11,1.38,1.43c1.86,0.84,3.41,0.04,4.49-2.35c0.67-1.47,0.81-2.85,0.43-3.87c-0.26-0.65-0.67-1.09-1.41-1.43
		C178.05,282.04,177.24,281.98,176.56,282.24z"/>
	<path d="M184.25,293.67c0.23-0.05,0.36-0.25,0.49-0.69l1.74-6.03c0.34-1.18,0.32-1.28-0.27-1.5l-0.49-0.18l0.14-0.5
		c1.3,0.4,1.89,0.59,2.18,0.67l1.39,0.39c0.84,0.23,1.46,0.39,1.78,0.48c1.82,0.52,2.82,1.18,3.39,2.19
		c0.48,0.85,0.54,2.01,0.18,3.29c-0.42,1.45-1.23,2.5-2.41,3.14c-1.3,0.71-2.94,0.84-4.51,0.39c-0.2-0.06-0.5-0.14-0.82-0.25
		c-0.44-0.14-0.92-0.29-1.28-0.4c-0.39-0.11-0.93-0.25-2.11-0.56l0.09-0.31L184.25,293.67z M186.49,294.04
		c0.32,0.15,0.53,0.23,0.88,0.33c1.53,0.44,2.57,0.43,3.44-0.04c0.85-0.46,1.46-1.37,1.85-2.75c0.39-1.35,0.36-2.33-0.07-3.1
		c-0.16-0.31-0.38-0.56-0.63-0.76c-0.52-0.43-1.48-0.89-2.42-1.16c-0.32-0.09-0.53-0.14-0.85-0.19L186.49,294.04z"/>
	<path d="M204.86,293.6l0.16-0.12l0.11,0.03c0.35,0.11,0.35,0.11,0.48,0.13c0.88,0.1,1.52-0.55,1.65-1.67
		c0.15-1.24-0.37-1.93-1.52-2.07c-0.38-0.04-0.64-0.03-0.85,0.03l-0.79,6.77c-0.14,1.22-0.12,1.28,0.51,1.4l0.65,0.12l-0.06,0.56
		c-1.3-0.18-1.82-0.26-2.3-0.31c-0.49-0.06-0.97-0.1-2.16-0.21l0.07-0.56l0.52,0.02c0.66,0.02,0.68,0,0.82-1.24l0.67-5.67
		c0.14-1.22,0.11-1.31-0.51-1.44l-0.51-0.1l0.06-0.51c1.4,0.19,2.01,0.28,2.41,0.33c0.39,0.05,1.03,0.11,1.96,0.2
		c0.36,0.03,0.54,0.05,0.68,0.07c1.79,0.21,2.58,0.99,2.41,2.4c-0.2,1.68-1.68,2.79-3.49,2.58c-0.19-0.02-0.29-0.05-0.58-0.12
		c-0.07-0.02-0.11-0.04-0.2-0.07L204.86,293.6z"/>
	<path d="M219.45,298.24c0.33,0.45,0.47,0.54,0.97,0.64l-0.01,0.56c-0.52-0.04-0.64-0.04-1.36-0.06l-1.26,0.02l-3.07-4.9l0.1-0.25
		c0.63,0.01,0.97-0.04,1.32-0.25c0.59-0.33,0.94-0.95,0.95-1.69c0.02-1.13-0.69-1.8-1.93-1.82c-0.36-0.01-0.63,0.03-0.83,0.11
		l-0.1,6.81c-0.02,1.25,0,1.27,0.65,1.34l0.52,0.05l-0.01,0.56c-1.19-0.04-1.68-0.07-2.18-0.07c-0.49-0.01-0.99,0-2.17,0.01
		l0.01-0.56l0.52-0.04c0.66-0.05,0.67-0.07,0.69-1.32l0.08-5.71c0.02-1.23-0.02-1.32-0.65-1.38l-0.52-0.05l0.01-0.52
		c1.41,0.05,2.03,0.07,2.49,0.08c0.41,0.01,1.37,0,1.82,0c0.46-0.01,0.8,0,0.97,0c1.76,0.03,2.65,0.72,2.63,2.09
		c-0.01,0.59-0.21,1.1-0.61,1.53c-0.38,0.42-0.72,0.62-1.51,0.93L219.45,298.24z"/>
	<path d="M232.68,293.27c0.36,3.17-1.39,5.28-4.71,5.65c-3.19,0.36-5.21-1.2-5.56-4.29c-0.36-3.2,1.39-5.28,4.77-5.66
		C230.3,288.62,232.33,290.21,232.68,293.27z M225.06,290.81c-0.57,0.7-0.78,1.84-0.61,3.27c0.18,1.61,0.75,2.88,1.6,3.54
		c0.56,0.44,1.15,0.6,1.92,0.51c2.03-0.23,2.95-1.72,2.65-4.32c-0.18-1.6-0.76-2.86-1.62-3.54c-0.56-0.43-1.14-0.59-1.95-0.5
		C226.24,289.88,225.52,290.24,225.06,290.81z"/>
	<path d="M237.42,296.72c0.17-0.16,0.19-0.39,0.07-0.84l-1.57-6.07c-0.31-1.19-0.37-1.26-1-1.16l-0.51,0.09l-0.13-0.5
		c1.32-0.31,1.92-0.45,2.22-0.53l1.39-0.38c0.84-0.23,1.46-0.41,1.78-0.49c1.83-0.47,3.03-0.42,4.03,0.16
		c0.85,0.49,1.49,1.45,1.82,2.74c0.38,1.46,0.21,2.78-0.47,3.93c-0.76,1.27-2.1,2.22-3.69,2.63c-0.2,0.05-0.5,0.13-0.83,0.2
		c-0.45,0.1-0.94,0.21-1.31,0.31c-0.39,0.1-0.93,0.26-2.1,0.59l-0.08-0.31L237.42,296.72z M239.54,295.89
		c0.35-0.03,0.57-0.08,0.92-0.17c1.54-0.4,2.43-0.93,2.94-1.79c0.5-0.82,0.56-1.92,0.2-3.3c-0.35-1.36-0.87-2.19-1.63-2.63
		c-0.29-0.18-0.61-0.29-0.93-0.34c-0.66-0.1-1.72-0.02-2.67,0.23c-0.33,0.08-0.53,0.15-0.83,0.27L239.54,295.89z"/>
	<path d="M257.15,287.01c0.97,2.34,0.25,3.96-2.24,4.99c-2.23,0.92-4.02,0.53-4.66-1.01l-1.96-4.74c-0.47-1.14-0.54-1.2-1.15-1.01
		l-0.49,0.16l-0.2-0.48c1.1-0.42,1.57-0.6,2.02-0.79c0.47-0.19,0.91-0.39,2-0.87l0.2,0.48l-0.46,0.24c-0.56,0.29-0.57,0.39-0.1,1.53
		l1.33,3.21c0.56,1.35,0.92,1.91,1.45,2.18c0.52,0.27,1.18,0.22,2.06-0.14c0.87-0.36,1.39-0.79,1.59-1.31
		c0.25-0.63,0.14-1.39-0.43-2.76l-1.29-3.12c-0.47-1.14-0.54-1.2-1.15-1.01l-0.5,0.16l-0.2-0.48c1.17-0.44,1.35-0.51,1.5-0.58
		l1.46-0.65l0.2,0.48l-0.46,0.24c-0.56,0.29-0.57,0.39-0.1,1.52L257.15,287.01z"/>
	<path d="M269.74,283.47c-0.61,1.02-1.22,1.6-2.33,2.25c-2.99,1.74-5.84,1.13-7.42-1.58c-1.51-2.59-0.54-5.33,2.52-7.11
		c1.05-0.61,1.81-0.88,3.16-1.08l0.15,0.09c0.16,0.52,0.26,0.77,0.8,2.01l-0.47,0.27l-0.67-1c-1.01-0.22-1.72-0.12-2.64,0.42
		c-1.92,1.12-2.35,3.09-1.14,5.17c1.33,2.29,3.6,2.98,5.73,1.74c0.8-0.46,1.45-1.12,2-1.99l0.23,0.06L269.74,283.47z"/>
	<path d="M275.78,277.37c0.76,0.99,0.79,1,1.34,0.64l0.44-0.28l0.34,0.44c-0.96,0.7-1.36,0.99-1.76,1.3
		c-0.39,0.3-0.78,0.62-1.69,1.36l-0.34-0.44l0.38-0.35c0.49-0.45,0.48-0.48-0.28-1.46l-4.14-5.37l-1.3,1
		c-0.47,0.36-0.63,0.52-0.61,0.65c0.01,0.08,0.06,0.26,0.11,0.32l0.53,0.81l-0.44,0.34c-0.68-0.82-1-1.19-1.5-1.65l0.02-0.11
		c1.77-1.33,2.82-2.12,3.48-2.62c0.64-0.5,1.7-1.33,3.41-2.68l0.11,0c0.32,0.6,0.59,1.01,1.21,1.87l-0.44,0.34l-0.65-0.72l-0.3-0.19
		c-0.16,0-0.3,0.07-0.76,0.43l-1.3,1L275.78,277.37z"/>
	<path d="M280.56,272.09l0.94,0.81c0.78,0.15,1.71-0.18,2.39-0.85c0.86-0.85,0.95-2.03,0.22-2.76c-0.47-0.48-1.05-0.52-1.77-0.14
		l-1.81,0.96c-1.22,0.66-2.35,0.53-3.19-0.31c-1.33-1.34-1.14-3.11,0.52-4.75c0.66-0.65,1.26-1.07,2.17-1.49l0.17,0.07
		c0.2,0.38,0.62,0.9,1.26,1.55l-0.41,0.4l-0.87-0.76c-0.74,0.01-1.37,0.27-1.9,0.79c-0.8,0.79-0.87,1.79-0.18,2.49
		c0.5,0.51,1.12,0.49,2.05-0.04l1.43-0.83c1.24-0.72,2.35-0.63,3.24,0.26c1.43,1.44,1.19,3.49-0.59,5.26
		c-0.76,0.75-1.46,1.19-2.52,1.59c-0.45-0.67-0.82-1.12-1.56-1.87L280.56,272.09z"/>
</g>
<g>
	<path d="M181.8,267.82l-0.25-1.54h-1.56l-0.25,1.54h-1.61l1.74-8.34h1.81l1.74,8.34H181.8z M180.78,261.25l-0.6,3.65h1.19
		L180.78,261.25z"/>
	<path d="M187.98,267.82l-0.9-3.06h-0.51v3.06H185v-8.34h2.32c1.32,0,2.27,1.06,2.27,2.59c0,1.41-0.6,2.05-1.07,2.31l1.15,3.44
		H187.98z M187.98,262.12c0-0.75-0.31-1.25-0.91-1.25h-0.5v2.5h0.5C187.67,263.37,187.98,262.87,187.98,262.12z"/>
	<path d="M191.26,263.66c0-2.49,0.79-4.31,2.61-4.31c1.36,0,1.84,1.07,2.1,1.96l-1.26,0.46c-0.16-0.64-0.36-1.02-0.84-1.02
		c-0.74,0-1,1.21-1,2.91c0,1.7,0.26,2.91,1,2.91c0.52,0,0.75-0.52,0.86-1.21l1.25,0.46c-0.22,0.95-0.71,2.15-2.11,2.15
		C192.04,267.97,191.26,266.13,191.26,263.66z"/>
	<path d="M200.86,267.82v-3.6h-1.6v3.6h-1.57v-8.34h1.57v3.36h1.6v-3.36h1.57v8.34H200.86z"/>
	<path d="M204.59,267.82v-8.34h1.57v8.34H204.59z"/>
	<path d="M209.1,267.82v-6.95h-1.26v-1.39h4.1v1.39h-1.26v6.95H209.1z"/>
	<path d="M213.63,267.82v-8.34h3.65v1.39h-2.07v2.01h1.99v1.39h-1.99v2.16h2.07v1.39H213.63z"/>
	<path d="M218.9,263.66c0-2.49,0.79-4.31,2.61-4.31c1.36,0,1.84,1.07,2.1,1.96l-1.26,0.46c-0.16-0.64-0.36-1.02-0.84-1.02
		c-0.74,0-1,1.21-1,2.91c0,1.7,0.26,2.91,1,2.91c0.53,0,0.75-0.52,0.86-1.21l1.25,0.46c-0.22,0.95-0.71,2.15-2.11,2.15
		C219.69,267.97,218.9,266.13,218.9,263.66z"/>
	<path d="M226.35,267.82v-6.95h-1.26v-1.39h4.1v1.39h-1.26v6.95H226.35z"/>
	<path d="M230.87,265.41v-5.92h1.58v6c0,0.81,0.31,1.1,0.8,1.1c0.47,0,0.8-0.29,0.8-1.1v-6h1.57v5.92c0,1.79-1.14,2.56-2.37,2.56
		S230.87,267.2,230.87,265.41z"/>
	<path d="M240.75,267.82l-0.9-3.06h-0.51v3.06h-1.58v-8.34h2.33c1.32,0,2.27,1.06,2.27,2.59c0,1.41-0.6,2.05-1.08,2.31l1.15,3.44
		H240.75z M240.75,262.12c0-0.75-0.31-1.25-0.91-1.25h-0.5v2.5h0.5C240.44,263.37,240.75,262.87,240.75,262.12z"/>
	<path d="M247.58,267.82l-0.25-1.54h-1.56l-0.25,1.54h-1.61l1.74-8.34h1.81l1.74,8.34H247.58z M246.55,261.25l-0.6,3.65h1.19
		L246.55,261.25z"/>
	<path d="M250.77,267.82v-8.34h1.58v6.95h2.07v1.39H250.77z"/>
</g>
</svg>
