<?xml version="1.0" encoding="utf-8"?>
<svg viewBox="0 0 150 74.999997" xmlns="http://www.w3.org/2000/svg">
  <defs>
    <clipPath id="860fc2ad79">
      <path d="M 10.6875 34.574219 L 45.175781 34.574219 L 45.175781 63.195312 L 10.6875 63.195312 Z M 10.6875 34.574219 " clip-rule="nonzero"/>
    </clipPath>
    <clipPath id="4a1ba0fa1f">
      <path d="M 31 18.292969 L 123 18.292969 L 123 59 L 31 59 Z M 31 18.292969 " clip-rule="nonzero"/>
    </clipPath>
  </defs>
  <g clip-path="url(#860fc2ad79)" style="" transform="matrix(0.4311569929122925, 0, 0, 0.5203009843826294, 18.64653778076172, 23.306299209594727)">
    <path fill="#f5be35" d="M 10.632812 50.015625 C 11.082031 46.988281 12.695312 44.3125 15.160156 42.496094 C 17.46875 40.789062 23.476562 37.777344 29.527344 35.691406 C 30.5 35.355469 31.429688 35.058594 32.308594 34.796875 L 32.054688 35.0625 L 32.042969 35.078125 L 32.03125 35.089844 C 31.132812 36.074219 30.699219 37.320312 30.734375 38.550781 C 30.667969 38.574219 30.605469 38.59375 30.535156 38.621094 C 24.84375 40.582031 19.078125 43.449219 17 44.984375 C 15.203125 46.3125 14.023438 48.261719 13.691406 50.472656 C 13.355469 52.691406 13.90625 54.894531 15.234375 56.699219 C 16.875 58.914062 19.414062 60.089844 21.984375 60.089844 C 23.710938 60.089844 25.453125 59.558594 26.945312 58.460938 C 29.070312 56.894531 33.566406 52.261719 37.125 47.511719 C 37.195312 47.421875 37.261719 47.328125 37.324219 47.242188 C 37.460938 47.066406 37.585938 46.898438 37.703125 46.734375 C 37.828125 46.558594 37.949219 46.390625 38.066406 46.226562 C 39.152344 44.699219 39.964844 43.394531 40.5625 42.285156 C 40.667969 42.085938 40.773438 41.894531 40.867188 41.710938 C 40.972656 41.5 41.070312 41.292969 41.160156 41.101562 C 42.199219 38.875 42.191406 37.671875 41.875 37.238281 C 41.691406 36.984375 41.261719 36.796875 40.664062 36.707031 C 41.226562 35.601562 42.292969 34.796875 43.554688 34.585938 C 43.871094 34.824219 44.136719 35.089844 44.367188 35.398438 C 45.550781 36.996094 45.40625 39.355469 43.914062 42.527344 C 43.820312 42.71875 43.726562 42.917969 43.625 43.117188 C 43.53125 43.308594 43.429688 43.5 43.320312 43.699219 C 42.550781 45.140625 41.523438 46.738281 40.253906 48.492188 C 40.136719 48.652344 40.011719 48.828125 39.882812 48.992188 C 39.796875 49.117188 39.695312 49.246094 39.605469 49.371094 C 39.574219 49.414062 39.542969 49.453125 39.511719 49.496094 C 35.75 54.492188 31.113281 59.230469 28.785156 60.953125 C 26.332031 62.761719 23.304688 63.523438 20.261719 63.0625 C 17.234375 62.605469 14.5625 61 12.742188 58.539062 C 10.921875 56.070312 10.171875 53.042969 10.632812 50.015625 " fill-opacity="1" fill-rule="nonzero"/>
  </g>
  <g clip-path="url(#4a1ba0fa1f)" style="" transform="matrix(1.052549958229065, 0, 0, 0.9724600315093994, -6.463605880737305, 0.5040000081062317)">
    <path fill="#f5be35" d="M 44.222656 43.777344 C 47.121094 43.777344 49.46875 41.429688 49.46875 38.53125 C 49.46875 35.632812 47.121094 33.285156 44.222656 33.285156 C 43.742188 33.285156 43.277344 33.355469 42.832031 33.480469 C 42.667969 33.515625 42.515625 33.570312 42.359375 33.628906 C 42.210938 33.683594 42.0625 33.746094 41.925781 33.820312 C 40.742188 34.390625 39.8125 35.398438 39.335938 36.632812 C 39.292969 36.730469 39.257812 36.835938 39.226562 36.941406 C 39.1875 37.046875 39.164062 37.152344 39.140625 37.257812 C 39.035156 37.664062 38.976562 38.09375 38.976562 38.53125 C 38.976562 39.769531 39.40625 40.90625 40.117188 41.804688 C 39.546875 42.878906 38.742188 44.195312 37.628906 45.773438 L 32.945312 40.933594 C 32.382812 40.324219 32.066406 39.566406 31.992188 38.792969 C 31.980469 38.6875 31.972656 38.574219 31.972656 38.46875 C 31.972656 38.359375 31.980469 38.253906 31.984375 38.144531 C 32.046875 37.34375 32.363281 36.5625 32.945312 35.925781 L 34.625 34.191406 L 35.015625 33.789062 L 35.390625 33.398438 L 48.90625 19.433594 C 49.613281 18.707031 50.574219 18.300781 51.582031 18.300781 L 119.472656 18.300781 C 121.523438 18.300781 123.1875 19.964844 123.1875 22.015625 L 123.1875 54.839844 C 123.1875 56.894531 121.523438 58.554688 119.472656 58.554688 L 51.582031 58.554688 C 50.574219 58.554688 49.613281 58.148438 48.90625 57.429688 L 40.6875 48.9375 C 42.070312 47.046875 43.164062 45.328125 43.976562 43.773438 C 44.058594 43.777344 44.144531 43.777344 44.222656 43.777344 " fill-opacity="1" fill-rule="nonzero"/>
  </g>
</svg>